<?xml version="1.0" standalone="no"?>
<!DOCTYPE svg PUBLIC "-//W3C//DTD SVG 20010904//EN"
 "http://www.w3.org/TR/2001/REC-SVG-20010904/DTD/svg10.dtd">
<svg version="1.0" xmlns="http://www.w3.org/2000/svg"
 width="164.000000pt" height="164.000000pt" viewBox="0 0 164.000000 164.000000"
 preserveAspectRatio="xMidYMid meet">

<g transform="translate(0.000000,164.000000) scale(0.100000,-0.100000)"
fill="#000000" stroke="none">
<path d="M635 1454 c-231 -63 -236 -64 -231 -73 3 -4 36 -16 73 -26 37 -10 74
-22 81 -28 9 -7 12 -59 12 -196 1 -199 7 -234 53 -294 13 -18 49 -46 78 -62
46 -26 64 -30 124 -29 80 0 130 21 182 76 59 62 67 92 73 313 l5 200 65 17
c36 9 71 15 78 13 15 -5 16 -91 2 -166 -7 -35 -7 -56 0 -63 23 -23 29 12 23
131 l-6 122 -51 14 c-193 53 -367 97 -383 96 -10 0 -90 -21 -178 -45z m107
-370 c18 -9 43 -25 54 -36 21 -19 22 -19 65 10 51 34 114 55 149 50 23 -3 25
-8 28 -66 4 -80 -18 -148 -61 -192 -91 -94 -231 -92 -315 5 -42 47 -49 66 -58
153 -9 99 -5 106 56 99 27 -3 64 -13 82 -23z"/>
<path d="M798 952 c-61 -2 -98 -7 -98 -13 0 -20 59 -66 91 -73 45 -9 104 10
128 41 12 14 21 29 21 33 0 12 -38 15 -142 12z"/>
<path d="M502 692 c-13 -4 -24 -11 -24 -17 -2 -12 321 -244 341 -244 7 -1 79
46 160 103 80 57 159 111 174 121 33 21 24 30 -35 40 -34 6 -50 0 -161 -64
-67 -39 -129 -71 -137 -71 -8 0 -69 32 -136 70 -120 69 -136 74 -182 62z"/>
<path d="M377 643 c-17 -30 -87 -386 -87 -443 0 -20 5 -20 530 -20 l530 0 0
23 c0 20 -52 337 -65 392 -2 11 -10 28 -18 39 -13 18 -15 18 -40 1 -24 -15
-25 -19 -13 -38 16 -25 69 -333 61 -348 -8 -11 -902 -12 -909 -1 -8 13 50 342
62 354 8 8 4 16 -13 29 -26 21 -32 23 -38 12z"/>
</g>
</svg>
